<?xml version="1.0" encoding="utf-8"?>
<!-- Generator: Adobe Illustrator 16.0.0, SVG Export Plug-In . SVG Version: 6.00 Build 0)  -->
<!DOCTYPE svg PUBLIC "-//W3C//DTD SVG 1.1//EN" "http://www.w3.org/Graphics/SVG/1.1/DTD/svg11.dtd">
<svg version="1.1" id="FileFormat" xmlns="http://www.w3.org/2000/svg" xmlns:xlink="http://www.w3.org/1999/xlink" x="0px" y="0px"
	 width="500px" height="100px" viewBox="0 0 500 100" enable-background="new 0 0 500 100" xml:space="preserve">
<g>
	<path fill="#FFFFFF" d="M91.4,36.726v10.868h17.548v6.169H91.4v16.305h-6.68V30.499H111.1l-0.057,6.227H91.4z"/>
	<path fill="#FFFFFF" d="M118.911,30.499h6.68v39.569h-6.68V30.499z"/>
	<path fill="#FFFFFF" d="M136.572,70.068V30.499h6.68v33.229h18.058v6.34H136.572z"/>
	<path fill="#FFFFFF" d="M196.405,30.499v6.283h-21.114v10.472h18.963v5.943h-18.963v10.586h21.794v6.285h-28.474V30.499H196.405z"
		/>
	<path fill="#FFFFFF" d="M212.311,36.726v10.868h17.549v6.169h-17.549v16.305h-6.68V30.499h26.379l-0.057,6.227H212.311z"/>
	<path fill="#FFFFFF" d="M272.937,64.605c-4,3.906-8.943,5.857-14.831,5.857c-5.887,0-10.831-1.951-14.83-5.857
		c-4.002-3.906-6.002-8.775-6.002-14.606c0-5.83,2-10.698,6.002-14.604c3.999-3.906,8.943-5.859,14.83-5.859
		c5.888,0,10.831,1.953,14.831,5.859c3.999,3.906,6,8.774,6,14.604C278.937,55.83,276.936,60.699,272.937,64.605z M268.04,39.839
		c-2.698-2.792-6.01-4.189-9.935-4.189c-3.926,0-7.236,1.396-9.935,4.189c-2.698,2.793-4.048,6.18-4.048,10.16
		c0,3.983,1.35,7.37,4.048,10.161c2.698,2.795,6.009,4.189,9.935,4.189c3.925,0,7.236-1.395,9.935-4.189
		c2.697-2.791,4.048-6.178,4.048-10.161C272.088,46.02,270.737,42.632,268.04,39.839z"/>
	<path fill="#FFFFFF" d="M318.958,43.349c0,6.529-2.85,10.641-8.548,12.34l10.359,14.379h-8.491l-9.453-13.303h-8.774v13.303h-6.68
		V30.499h14.719c6.037,0,10.358,1.019,12.962,3.057C317.656,35.594,318.958,38.858,318.958,43.349z M310.071,48.954
		c1.357-1.169,2.038-3.047,2.038-5.633c0-2.585-0.7-4.359-2.096-5.321c-1.396-0.962-3.887-1.443-7.471-1.443h-8.492v14.153h8.321
		C306.146,50.709,308.712,50.123,310.071,48.954z"/>
	<path fill="#FFFFFF" d="M335.261,70.068h-6.68V30.499h10.416l11.944,24.851l11.944-24.851h10.358v39.569h-6.68V39.16
		l-13.813,27.456h-3.735L335.261,39.16V70.068z"/>
	<path fill="#FFFFFF" d="M389.828,61.066l-3.962,9.002h-7.132l17.435-39.569h7.133l17.435,39.569h-7.132l-3.963-9.002H389.828z
		 M406.925,54.896l-7.189-16.303l-7.189,16.303H406.925z"/>
	<path fill="#FFFFFF" d="M438.059,36.612v33.456h-6.68V36.612h-12.001v-6.113h30.681v6.113H438.059z"/>
</g>
<g id="SYMBOL">
	<polygon fill="#29AAE1" points="69.79,31.633 20.492,38.237 20.492,18.169 76.396,18.169 	"/>
	<polygon fill="#0277B3" points="47.13,53.771 20.492,60.375 20.492,40.307 53.734,40.307 	"/>
	<polygon fill="#3D5E9E" points="30.509,75.906 20.492,82.511 20.492,62.442 37.113,62.442 	"/>
</g>
</svg>
